<svg width="12" height="12" viewBox="0 0 12 12" xmlns="http://www.w3.org/2000/svg">
    <g fill="none" fill-rule="evenodd">
        <path d="M0 0h12v12H0z"/>
        <path d="M4.533 10a.598.598 0 0 1-.269-.06A.47.47 0 0 1 4 9.523c0-.132.055-.247.164-.347L7.728 6 4.164 2.824a.457.457 0 0 1 .1-.764c.08-.04.17-.06.27-.06.147 0 .272.045.374.135l3.918 3.504a.456.456 0 0 1 .134.166c.027.06.04.124.04.195 0 .07-.013.136-.04.195a.456.456 0 0 1-.134.166L4.908 9.865a.547.547 0 0 1-.375.135z" fill="#FFF" fill-rule="nonzero"/>
    </g>
</svg>
