<svg width="18" height="18" viewBox="0 0 18 18" xmlns="http://www.w3.org/2000/svg">
    <g fill="none" fill-rule="evenodd">
        <path d="M0 0h18v18H0z"/>
        <path d="M10.092 14a.639.639 0 0 0 .46-.2L14.79 9.49A.65.65 0 0 0 15 9a.664.664 0 0 0-.21-.489l-4.218-4.29a.758.758 0 0 0-.233-.17.61.61 0 0 0-.247-.051.621.621 0 0 0-.636.634.7.7 0 0 0 .048.258.62.62 0 0 0 .135.21l1.44 1.488 1.983 1.848-1.503-.092h-7.91c-.19 0-.345.06-.466.182A.638.638 0 0 0 3 9c0 .197.06.357.183.479a.632.632 0 0 0 .466.182h7.91l1.51-.091-1.99 1.847-1.44 1.488a.62.62 0 0 0-.135.21.7.7 0 0 0-.048.258.621.621 0 0 0 .635.627z" fill="#3A4364" fill-rule="nonzero"/>
    </g>
</svg>
