<svg width="24" height="24" viewBox="0 0 24 24" xmlns="http://www.w3.org/2000/svg">
    <g fill="none" fill-rule="evenodd">
        <path d="M0 0h24v24H0z"/>
        <path d="M19.506 18.168c.465 0 .83-.113 1.096-.34.265-.226.398-.529.398-.908 0-.486-.19-.946-.568-1.382-.378-.436-.777-.86-1.195-1.273a2.162 2.162 0 0 1-.498-.843c-.12-.35-.21-.727-.27-1.133-.059-.405-.105-.805-.139-1.197-.033-1.178-.174-2.23-.423-3.154-.249-.925-.63-1.705-1.14-2.34-.512-.636-1.18-1.1-2.003-1.392a3.348 3.348 0 0 0-.996-1.567C13.29 2.213 12.702 2 12.005 2c-.697 0-1.287.213-1.768.639a3.332 3.332 0 0 0-1.001 1.567c-.824.292-1.491.756-2.002 1.392-.512.635-.892 1.415-1.141 2.34-.25.925-.39 1.976-.423 3.154-.04.392-.088.792-.145 1.197a6.08 6.08 0 0 1-.264 1.133c-.12.35-.285.63-.498.843-.418.413-.817.837-1.195 1.273-.379.436-.568.896-.568 1.382 0 .38.133.682.398.908.266.227.631.34 1.096.34h15.012zM12.005 22c.538 0 1.023-.116 1.454-.35a2.9 2.9 0 0 0 1.041-.927c.263-.386.414-.802.454-1.248H9.046c.04.446.191.862.454 1.248a2.9 2.9 0 0 0 1.04.928c.432.233.92.349 1.465.349z" fill="#FFF" fill-rule="nonzero"/>
    </g>
</svg>
