<svg width="18" height="18" viewBox="0 0 18 18" xmlns="http://www.w3.org/2000/svg">
    <g fill="none" fill-rule="evenodd">
        <path d="M0 0h18v18H0z"/>
        <path d="M9 3C5.25 3 2.047 5.332.75 8.625 2.047 11.918 5.25 14.25 9 14.25s6.953-2.332 8.25-5.625C15.953 5.332 12.75 3 9 3zm0 9.375c-2.07 0-3.75-1.68-3.75-3.75 0-2.07 1.68-3.75 3.75-3.75 2.07 0 3.75 1.68 3.75 3.75 0 2.07-1.68 3.75-3.75 3.75zm0-6a2.247 2.247 0 0 0-2.25 2.25A2.247 2.247 0 0 0 9 10.875a2.247 2.247 0 0 0 2.25-2.25A2.247 2.247 0 0 0 9 6.375z" fill-opacity=".2" fill="#000"/>
    </g>
</svg>
