<svg width="24" height="24" viewBox="0 0 24 24" xmlns="http://www.w3.org/2000/svg">
    <g fill="none" fill-rule="evenodd">
        <path d="M0 0h24v24H0z"/>
        <rect fill="#FFF" x="12" y="7" width="10" height="4" rx="2"/>
        <rect fill="#FFF" x="12" y="14" width="10" height="4" rx="2"/>
        <path d="M10.47 4.63c.39.39.39 1.02 0 1.41l-4.23 4.25c-.39.39-1.02.39-1.42 0L2.7 8.16a.996.996 0 1 1 1.41-1.41l1.42 1.42 3.54-3.54c.38-.38 1.02-.38 1.4 0zm.01 8.01c.39.39.39 1.02 0 1.41L6.25 18.3c-.39.39-1.02.39-1.42 0L2.7 16.16a.996.996 0 1 1 1.41-1.41l1.42 1.42 3.54-3.54c.38-.38 1.02-.38 1.41.01z" fill="#FFF"/>
    </g>
</svg>
