<svg width="24" height="24" viewBox="0 0 24 24" xmlns="http://www.w3.org/2000/svg">
    <g fill="none" fill-rule="evenodd">
        <path d="M0 0h24v24H0z"/>
        <path d="M5 4h4.667a1 1 0 0 1 1 1v4.667a1 1 0 0 1-1 1H5a1 1 0 0 1-1-1V5a1 1 0 0 1 1-1zm0 9.333h4.667a1 1 0 0 1 1 1V19a1 1 0 0 1-1 1H5a1 1 0 0 1-1-1v-4.667a1 1 0 0 1 1-1zM14.333 4H19a1 1 0 0 1 1 1v4.667a1 1 0 0 1-1 1h-4.667a1 1 0 0 1-1-1V5a1 1 0 0 1 1-1zm0 9.333H19a1 1 0 0 1 1 1V19a1 1 0 0 1-1 1h-4.667a1 1 0 0 1-1-1v-4.667a1 1 0 0 1 1-1z" fill="currentColor" fill-rule="nonzero"/>
    </g>
</svg>
